HIERARCHY
ROOT Hips
{
	OFFSET -3.958830 18.904000 13.208200
	CHANNELS 6 Xposition Yposition Zposition Zrotation Yrotation Xrotation 
	JOINT LHipJoint
	{
		OFFSET 0.000000 0.000000 0.000000
		CHANNELS 3 Zrotation Yrotation Xrotation
		JOINT LeftUpLeg
		{
			OFFSET 1.800000 -1.400000 0.085000
			CHANNELS 3 Zrotation Yrotation Xrotation
			JOINT LeftLeg
			{
				OFFSET 2.215000 -6.000000 0.000000
				CHANNELS 3 Zrotation Yrotation Xrotation
				JOINT LeftFoot
				{
					OFFSET 2.500000 -6.900000 0.000000
					CHANNELS 3 Zrotation Yrotation Xrotation
					JOINT LeftToeBase
					{
						OFFSET 0.200000 -0.500000 1.950000
						CHANNELS 3 Zrotation Yrotation Xrotation
						End Site
						{
							OFFSET 0.000000 0.000000 0.000000
						}
					}
				}
			}
		}
	}
	JOINT RHipJoint
	{
		OFFSET 0.000000 0.000000 0.000000
		CHANNELS 3 Zrotation Yrotation Xrotation
		JOINT RightUpLeg
		{
			OFFSET -1.800000 -1.400000 0.085000
			CHANNELS 3 Zrotation Yrotation Xrotation
			JOINT RightLeg
			{
				OFFSET -2.215000 -6.000000 0.000000
				CHANNELS 3 Zrotation Yrotation Xrotation
				JOINT RightFoot
				{
					OFFSET -2.500000 -6.900000 0.000000
					CHANNELS 3 Zrotation Yrotation Xrotation
					JOINT RightToeBase
					{
						OFFSET -0.200000 -0.500000 1.950000
						CHANNELS 3 Zrotation Yrotation Xrotation
						End Site
						{
							OFFSET 0.000000 0.000000 0.000000
						}
					}
				}
			}
		}
	}
	JOINT LowerBack
	{
		OFFSET 0.000000 0.000000 0.000000
		CHANNELS 3 Zrotation Yrotation Xrotation
		JOINT Spine
		{
			OFFSET -0.087000 1.940000 -0.288900
			CHANNELS 3 Zrotation Yrotation Xrotation
			JOINT Spine1
			{
				OFFSET 0.000000 1.950000 0.060000
				CHANNELS 3 Zrotation Yrotation Xrotation
				JOINT Neck
				{
					OFFSET 0.000000 0.000000 0.000000
					CHANNELS 3 Zrotation Yrotation Xrotation
					JOINT Neck1
					{
						OFFSET 0.000000 1.600000 0.340000
						CHANNELS 3 Zrotation Yrotation Xrotation
						JOINT Head
						{
							OFFSET 0.000000 1.667000 -0.240000
							CHANNELS 3 Zrotation Yrotation Xrotation
							End Site
							{
								OFFSET 0.000000 0.000000 0.000000
							}
						}
					}
				}
				JOINT LeftShoulder
				{
					OFFSET 0.000000 0.000000 0.000000
					CHANNELS 3 Zrotation Yrotation Xrotation
					JOINT LeftArm
					{
						OFFSET 2.700000 1.550000 -0.730000
						CHANNELS 3 Zrotation Yrotation Xrotation
						JOINT LeftForeArm
						{
							OFFSET 5.450000 0.000000 0.000000
							CHANNELS 3 Zrotation Yrotation Xrotation
							JOINT LeftHand
							{
								OFFSET 3.450000 0.000000 0.000000
								CHANNELS 3 Zrotation Yrotation Xrotation
								JOINT LeftHandIndex1
								{
									OFFSET 0.750000 0.000000 0.000000
									CHANNELS 3 Zrotation Yrotation Xrotation
									End Site
									{
										OFFSET 0.000000 0.000000 0.000000
									}
								}
							}
						}
					}
				}
				JOINT RightShoulder
				{
					OFFSET 0.000000 0.000000 0.000000
					CHANNELS 3 Zrotation Yrotation Xrotation
					JOINT RightArm
					{
						OFFSET -2.700000 1.550000 -0.730000
						CHANNELS 3 Zrotation Yrotation Xrotation
						JOINT RightForeArm
						{
							OFFSET -5.450000 0.000000 0.000000
							CHANNELS 3 Zrotation Yrotation Xrotation
							JOINT RightHand
							{
								OFFSET -3.450000 0.000000 0.000000
								CHANNELS 3 Zrotation Yrotation Xrotation
								JOINT RightHandIndex1
								{
									OFFSET -0.750000 0.000000 0.000000
									CHANNELS 3 Zrotation Yrotation Xrotation
									End Site
									{
										OFFSET 0.000000 0.000000 0.000000
									}
								}
							}
						}
					}
				}
			}
		}
	}
}
MOTION
Frames: 9
Frame Time: 0.016667
0.230630 17.450370 -6.826660 -2.922969 0.181214 7.558101 -15.106228 12.835493 2.556277 21.002890 -0.939697 -10.830929 -2.580267 4.546235 5.185145 -0.042412 4.303360 3.154308 -0.016210 -0.142090 -0.098140 18.261698 -10.930065 2.449444 -21.961459 0.245977 -11.512659 3.498848 -4.189556 4.668853 -0.162580 -3.941397 2.969707 -0.061140 0.364780 0.316460 -3.660689 -0.734030 -6.771728 5.759610 1.365499 0.045293 -0.315767 0.732206 0.351274 1.762904 0.443874 -5.863359 0.312402 -0.009962 26.626297 -1.733860 1.468470 -2.685770 -19.128765 2.287800 0.847071 -57.989138 -0.455863 -4.056736 2.650316 -5.623858 -0.855045 -4.116206 2.878916 0.151700 0.266150 -0.037460 0.175610 15.959255 -1.956517 1.843297 63.480888 -2.046475 -8.009198 -3.586502 9.349221 -0.935523 2.598730 -1.297549 -0.104540 0.014970 0.046370 0.047030 
0.228230 17.447680 -6.836020 -2.914015 -0.015650 7.455747 -15.104703 12.854601 2.543587 20.938444 -0.937987 -10.753212 -2.467815 4.536392 5.259731 -0.028759 4.295334 3.162019 -0.019530 -0.137670 -0.114170 18.262175 -10.924148 2.454503 -22.043126 0.231489 -11.590186 3.551867 -4.191948 4.678663 -0.155964 -3.949810 2.970796 -0.059790 0.377850 0.317500 -3.662408 -0.769864 -6.768881 5.820009 1.258098 0.021873 -0.197687 0.624629 0.484708 1.616347 0.241678 -5.889898 -0.080805 0.161192 26.850068 -1.618890 1.411900 -2.103940 -19.393028 1.963168 0.962766 -57.832811 -0.518786 -3.986173 2.663684 -5.668265 -0.844434 -4.118098 2.892183 0.133420 0.275290 -0.044320 0.185340 16.516229 -1.490657 1.857701 62.963084 -1.806011 -7.712881 -3.485821 8.817652 -0.886529 2.608885 -1.309501 -0.098650 0.014360 0.044520 0.060620 
0.220690 17.445910 -6.836090 -2.952016 -0.148943 7.358276 -15.114645 12.867692 2.562176 21.099196 -0.925675 -10.634995 -2.609306 4.587820 5.259798 -0.014372 4.328231 3.149980 -0.019800 -0.133430 -0.120920 18.251553 -10.924223 2.431603 -21.946728 0.198454 -11.627049 3.523106 -4.211496 4.909674 -0.154109 -3.934630 2.978766 -0.060440 0.379390 0.319930 -3.630384 -0.807347 -6.770405 5.601480 1.242081 0.048795 0.187031 0.595220 0.338460 1.476146 0.249677 -5.795295 -0.146894 0.032342 27.134590 -1.555880 1.213570 -2.023670 -19.777220 2.046350 0.919883 -57.552005 -0.449607 -4.008266 2.401947 -5.953652 -0.854950 -4.114012 2.892805 0.129170 0.275500 -0.040960 0.189650 17.214761 -1.548559 1.752433 62.361323 -1.965917 -7.675588 -3.880286 8.627879 -0.874824 2.612270 -1.307854 -0.092480 0.015560 0.044250 0.067080 
0.216990 17.441110 -6.834070 -2.976382 -0.235655 7.286812 -15.116668 12.878610 2.571263 21.211123 -0.918822 -10.559573 -2.685416 4.629163 5.303638 -0.012660 4.354618 3.141585 -0.031210 -0.141450 -0.132370 18.248995 -10.930992 2.410725 -21.927498 0.154322 -11.613816 3.431280 -4.232459 5.108230 -0.149549 -3.928399 2.984458 -0.064050 0.385920 0.315530 -3.622476 -0.829675 -6.766754 5.606088 1.220286 0.049243 0.160715 0.573786 0.343003 1.486727 0.301794 -5.784561 -0.093592 -0.017978 27.235059 -1.513870 1.151370 -1.984150 -19.679842 2.097963 0.858603 -57.550843 -0.669217 -3.896766 2.297785 -5.821274 -0.843905 -4.120914 2.882460 0.128960 0.278290 -0.044220 0.187440 17.101359 -1.688230 1.782482 62.611757 -2.211707 -7.868607 -3.794561 8.924759 -0.897385 2.605284 -1.295663 -0.097310 0.023450 0.052800 0.068340 
0.214770 17.438510 -6.830600 -3.000362 -0.433830 7.217177 -15.115089 12.884654 2.554640 21.206661 -0.919489 -10.416981 -2.579534 4.626510 5.378617 -0.010199 4.356044 3.141847 -0.030570 -0.145210 -0.126300 18.250270 -10.919960 2.429928 -21.998205 0.138537 -11.540038 3.568388 -4.242098 4.917642 -0.155681 -3.942152 2.976934 -0.068310 0.380090 0.317870 -3.624903 -0.841821 -6.768992 5.673332 1.257359 0.020665 0.114808 0.613729 0.310343 1.500745 0.254004 -5.770120 -0.213881 -0.136723 27.372645 -1.675050 1.085690 -1.976720 -19.755428 2.148441 0.800517 -57.466939 -0.769563 -3.897558 2.391951 -6.002812 -0.862622 -4.117444 2.882805 0.131990 0.274700 -0.041080 0.184220 17.139929 -1.721563 1.828751 62.721797 -2.473344 -7.966748 -3.926380 8.799271 -0.880675 2.609045 -1.293497 -0.094710 0.019830 0.052700 0.065650 
0.209520 17.434870 -6.831490 -3.015929 -0.697738 7.177095 -15.123119 12.881938 2.573539 21.319614 -0.925838 -10.236596 -2.720280 4.651255 5.212689 -0.008177 4.396837 3.133400 -0.036300 -0.155600 -0.128490 18.244352 -10.905322 2.416782 -21.980601 0.131803 -11.620589 3.482859 -4.225090 4.954847 -0.149372 -3.928894 2.982584 -0.070860 0.387410 0.313970 -3.602190 -0.872546 -6.770772 5.517598 1.319808 -0.022983 0.366822 0.665744 0.353930 1.420187 0.225430 -5.787960 -0.312177 -0.074328 27.539963 -1.615930 1.076790 -1.744980 -19.731926 2.017519 0.821088 -57.558105 -0.958842 -3.773395 2.360762 -5.815854 -0.855414 -4.122223 2.877559 0.134440 0.277550 -0.047960 0.182820 17.306365 -1.560196 1.855707 62.551581 -2.531378 -7.851605 -3.995076 8.165812 -0.812135 2.615106 -1.291376 -0.102890 0.025190 0.057260 0.063190 
0.203800 17.433080 -6.830740 -3.085853 -0.829697 7.103519 -15.128658 12.897348 2.570909 21.460127 -0.927557 -10.155729 -2.731966 4.698359 5.373642 -0.008489 4.425235 3.123483 -0.037160 -0.160110 -0.126070 18.239537 -10.891724 2.415203 -21.926364 0.106137 -11.566343 3.408586 -4.200665 4.849535 -0.150178 -3.923837 2.984811 -0.072360 0.388290 0.313230 -3.585967 -0.920272 -6.771052 5.485594 1.279513 -0.033026 0.462554 0.617113 0.393205 1.401148 0.252191 -5.785705 -0.325549 -0.015842 27.758994 -1.581220 1.119650 -1.621580 -19.644813 1.972803 0.796717 -57.505045 -1.211161 -3.599982 2.036534 -5.553563 -0.833110 -4.124179 2.876612 0.137950 0.277350 -0.049200 0.181310 17.278761 -1.587964 1.863834 62.545695 -2.668999 -7.824009 -3.847239 7.725120 -0.755800 2.620902 -1.287594 -0.106120 0.026010 0.058530 0.060480 
0.197640 17.432590 -6.830730 -3.080764 -1.201824 6.989271 -15.133116 12.952316 2.550071 21.398669 -0.908242 -10.020851 -2.496471 4.707191 5.694002 -0.011027 4.416775 3.124452 -0.036290 -0.161420 -0.121950 18.228040 -10.910836 2.409957 -21.912797 0.077816 -11.757538 3.347839 -4.216372 5.088470 -0.149113 -3.894217 2.992035 -0.076490 0.381910 0.314550 -3.557865 -0.966218 -6.767340 5.316797 1.315586 0.055473 0.571051 0.658387 0.338125 1.416723 0.306833 -5.824512 -0.312804 0.087352 28.216100 -1.528030 1.243610 -1.674630 -19.654175 1.842862 0.794175 -57.301705 -1.400088 -3.415167 1.869203 -5.101372 -0.798711 -4.122713 2.873685 0.147230 0.271580 -0.041620 0.179230 17.291058 -1.510789 1.912890 62.476442 -2.806218 -7.801620 -3.875730 7.244011 -0.687065 2.627754 -1.279153 -0.104660 0.025500 0.059140 0.057110 
0.192880 17.432990 -6.827200 -3.085289 -1.500167 6.930021 -15.139529 13.013652 2.529812 21.251035 -0.900537 -9.925788 -2.258877 4.701062 5.982195 -0.011280 4.393311 3.129920 -0.031980 -0.154560 -0.119370 18.215407 -10.915735 2.408351 -21.890932 0.046638 -11.827797 3.231191 -4.200168 5.170861 -0.149431 -3.869046 2.999797 -0.075880 0.373260 0.311780 -3.526398 -1.050761 -6.763986 5.241181 1.249620 0.155051 0.760964 0.604062 0.137851 1.362371 0.147740 -5.748241 -0.672220 0.230441 28.526148 -1.449080 1.288970 -1.793220 -19.848769 2.127921 0.657990 -57.067081 -1.359841 -3.419407 1.699396 -5.189655 -0.797708 -4.112041 2.872147 0.152110 0.263010 -0.034350 0.179370 17.618328 -1.707468 1.891749 61.880857 -3.206632 -7.944178 -3.935008 7.398125 -0.693744 2.629890 -1.271412 -0.101280 0.024750 0.055400 0.057430 
